<svg xmlns="http://www.w3.org/2000/svg" viewBox="0 0 512 512">
  <path d="M446.8 209c.8-5.7 1.2-11.3 1.2-17 0-70.6-57.4-128-128-128-41 0-78.5 19.3-102.3 51-8.4-2-17-3-25.7-3-61.8 0-112 50.3-112 112v4.6C34 242.4 0 285.3 0 336c0 61.8 50.3 112 112 112h272c70.6 0 128-57.4 128-128 0-46.7-25.7-88.8-65.2-111zM384 416H112c-44.2 0-80-35.8-80-80s35.8-80 80-80c2.4 0 4.8.5 7 .7-4.4-10-7-21-7-32.7 0-44.2 35.8-80 80-80 14.4 0 27.8 4 39.5 10.8C246 120.2 280.2 96 320 96c53 0 96 43 96 96 0 12.6-2.6 24.6-7 35.7 40.8 11 71 48 71 92.3 0 53-43 96-96 96z"/>
  <path d="M160 288h64v96h64v-96h64l-96-96"/>
</svg>
